 http://www.thedesiadda.com/

---------------------------------------------------------------------
IMDb Information:
---------------------------------------------------------------------

Title: No Strings Attached

Year: 2011
Runtime: 108 mins
Language: English
Country: USA
All Genres: Comedy, Romance
Director: Ivan Reitman
Writing By: Elizabeth Meriwether Michael Samonek Elizabeth Meriwether
Produced By: Gary Barber Ali Bell Roger Birnbaum Lisa Bruce Jeffrey Clifford Jon Glickman Jonathan Glickman Joe Medjuck Gerald D. Moon Tom Pollock Natalie Portman Ivan Reitman
Music: John Debney
Rating: 6.3
Votes: 0


---------------------------------------------------------------------
Description:
---------------------------------------------------------------------
A guy and girl try to keep their relationship strictly physical, but it's not long before they learn that they want something more. 
---------------------------------------------------------------------
Cast:
---------------------------------------------------------------------
. Natalie Portman as Emma
. Ashton Kutcher as Adam
. Kevin Kline as Alvin
. Cary Elwes as Dr. Metzner
. Greta Gerwig as Patrice
. Lake Bell as Lucy
. Olivia Thirlby as Katie
. Ludacris as Wallace (as Chris 'Ludacris' Bridges)
. Jake M. Johnson as Eli (as Jake Johnson)
. Mindy Kaling as Shira 

 
 

Format                           : Matroska
File size                        : 7.65 GiB
Duration                         : 1h 47mn
Overall bit rate                 : 10.1 Mbps
Writing application              : x264.exe
Writing library                  : mkv2rls v1.4 (date: 2011 mar 29)

Video
ID                               : 1
Format                           : AVC
Format/Info                      : Advanced Video Codec
Format profile                   : High@L4.1
Format settings, CABAC           : Yes
Format settings, ReFrames        : 5 frames
Format settings, GOP             : M=4, N=16
Codec ID                         : V_MPEG4/ISO/AVC
Duration                         : 1h 47mn
Bit rate                         : 8 635 Kbps
Width                            : 1 920 pixels
Height                           : 800 pixels
Display aspect ratio             : 2.40:1
Frame rate                       : 23.976 fps
Color space                      : YUV
Chroma subsampling               : 4:2:0
Bit depth                        : 8 bits
Scan type                        : Progressive
Bits/(Pixel*Frame)               : 0.234
Stream size                      : 6.36 GiB (83%)
Writing library                  : x264 core 115 r1937 aa21558
Encoding settings                : cabac=1 / ref=5 / deblock=1:0:0 / analyse=0x3:0x113 / me=umh / subme=8 / psy=1 / psy_rd=1.00:0.00 / mixed_ref=1 / me_range=16 / chroma_me=1 / trellis=1 / 8x8dct=1 / cqm=0 / deadzone=21,11 / fast_pskip=1 / chroma_qp_offset=-2 / threads=12 / sliced_threads=0 / nr=0 / decimate=1 / interlaced=0 / bluray_compat=0 / constrained_intra=0 / bframes=3 / b_pyramid=2 / b_adapt=2 / b_bias=0 / direct=3 / weightb=1 / open_gop=0 / weightp=2 / keyint=240 / keyint_min=24 / scenecut=40 / intra_refresh=0 / rc_lookahead=50 / rc=2pass / mbtree=1 / bitrate=8635 / ratetol=1.0 / qcomp=0.60 / qpmin=0 / qpmax=69 / qpstep=4 / cplxblur=20.0 / qblur=0.5 / ip_ratio=1.40 / aq=1:1.00
Language                         : English

Audio
ID                               : 2
Format                           : DTS
Format/Info                      : Digital Theater Systems
Codec ID                         : A_DTS
Duration                         : 1h 47mn
Bit rate mode                    : Constant
Bit rate                         : 1 510 Kbps
Channel(s)                       : 6 channels
Channel positions                : Front: L C R, Side: L R, LFE
Sampling rate                    : 48.0 KHz
Bit depth                        : 24 bits
Compression mode                 : Lossy
Stream size                      : 1.14 GiB (15%)
Language                         : English

Text
ID                               : 3
Format                           : UTF-8
Codec ID                         : S_TEXT/UTF8
Codec ID/Info                    : UTF-8 Plain Text
Language                         : English
 
http://www.phyrefile.com/image/view/k79Plf3CoQBNzQhv

Enjoy!!
Nice to back! DiBYATPB